# xmcd
#
# Track frame offsets:
# 150
# 16936
# 35503
# 49031
# 71661
# 86225
# 103879
# 118878
# 141486
# 158364
# 174595
#
# Disc length: 2511 seconds
#
#
# Revision: 4
# Processed by: cddbd v1.5.2PL0 Copyright (c) Steve Scherf et al.
# Submitted via: FreeRIP 2.96 
#
DISCID=9709cd0b
DTITLE=Kenny Wayne Shepherd - The Place You're In
DYEAR=2004
DGENRE=Blues
TTITLE0=Alive
TTITLE1=Be Mine
TTITLE2=Spank (ft. Kid Rock)
TTITLE3=Let Go
TTITLE4=Ain't Selling Out
TTITLE5=Believe (ft. Noah Hunt)
TTITLE6=The Place You're In
TTITLE7=Hey, What Do You Say
TTITLE8=Get It Together
TTITLE9=Burdens (ft. Noah Hunt)
TTITLE10=A Little Bit More
EXTD=
EXTT0=
EXTT1=
EXTT2=
EXTT3=
EXTT4=
EXTT5=
EXTT6=
EXTT7=
EXTT8=
EXTT9=
EXTT10=
PLAYORDER=
